<svg width="337" height="737" viewBox="0 0 337 737" fill="none" xmlns="http://www.w3.org/2000/svg">
<path d="M210.989 371.007C167.41 371.007 132.082 382.896 132.082 397.562V429.175H289.9V397.562C289.9 382.9 254.567 371.007 210.989 371.007Z" fill="#F9004D"></path>
<path opacity="0.49" d="M210.989 371.007C167.41 371.007 132.082 382.896 132.082 397.562V429.175H289.9V397.562C289.9 382.9 254.567 371.007 210.989 371.007Z" fill="white"></path>
<path opacity="0.49" d="M268.4 397.565V429.173H132.08V397.565C132.08 384.123 161.746 373.016 200.24 371.26C238.734 373.016 268.4 384.123 268.4 397.565Z" fill="white"></path>
<path d="M289.895 736.35H292.543L289.895 426.371L287.269 429.019L289.142 645.548L195.658 647.137L193.772 428.997L191.147 429.019L193.033 647.182L136.601 648.141L134.706 428.997L132.08 426.393L134.728 736.35L137.332 736.328L136.623 650.767L193.055 649.808L193.772 736.35L196.398 736.328L195.681 649.763L289.164 648.174L289.895 736.35Z" fill="#292A2E"></path>
<path d="M51.8849 689.941C51.8849 689.941 47.1921 714.266 24.4171 715.622C1.64212 716.978 6.58021 735.122 6.58021 735.122H93.6154V691.638L51.8849 689.941Z" fill="#F9004D"></path>
<path d="M101.542 616.778C101.542 616.778 108.068 640.678 88.2301 651.946C68.3921 663.214 80.8302 677.316 80.8302 677.316L158.93 638.898L139.736 599.88L101.542 616.778Z" fill="#F9004D"></path>
<path d="M93.2786 632.573L34.4319 410.542C29.9659 386.013 36.6887 375.382 47.0437 365.053C65.2357 346.907 140.618 308.286 140.618 308.286L231.053 308.039C255.032 308.039 278.606 331.685 278.606 355.664C278.606 379.643 254.228 399.979 230.249 399.979L118.886 411.092L149.073 614.392L93.2786 632.573Z" fill="#262626"></path>
<path d="M149.073 614.391L137.189 534.355L76.9819 571.083L93.2788 632.573L149.073 614.391Z" fill="#0C0C0C"></path>
<path d="M162.72 353.216C162.72 353.216 124.704 361.689 87.0531 399.34C64.2241 422.169 66.0959 463.479 69.5209 542.933L106.921 487.698L147.937 413.724L162.72 353.216Z" fill="#0C0C0C"></path>
<path d="M294.35 308.012L232.934 307.723L232.91 308.532H214.31C214.31 308.532 167.728 351.398 130.222 378.41C102.942 398.056 86.2999 416.788 84.8599 437.203C81.3489 486.968 41.7598 699.21 41.7598 699.21L101.345 708.232L153.632 454.587C153.632 454.587 235.399 416.894 254.311 403.776C272.12 391.423 284.699 386.649 290.592 373.169C300.771 349.887 294.35 308.012 294.35 308.012Z" fill="#262626"></path>
<path d="M225.448 323.484L125.813 324.804L181.703 358.185L228.209 334.169C229.33 333.568 230.217 332.607 230.727 331.442C231.237 330.277 231.342 328.974 231.024 327.742C230.706 326.511 229.983 325.421 228.972 324.649C227.961 323.877 226.72 323.467 225.448 323.484V323.484Z" fill="#292A2E"></path>
<path opacity="0.2" d="M225.448 323.484L125.813 324.804L181.703 358.185L228.209 334.169C229.33 333.568 230.217 332.607 230.727 331.442C231.237 330.277 231.342 328.974 231.024 327.742C230.706 326.511 229.983 325.421 228.972 324.649C227.961 323.877 226.72 323.467 225.448 323.484V323.484Z" fill="white"></path>
<path d="M126.384 144.74L98.2061 236.052L41.7598 309.952L74.7329 347.803L141.887 272.851C144.981 270.405 147.401 267.211 148.919 263.571L149.965 261.039L188.751 167.192L126.384 144.74Z" fill="#F9004D"></path>
<path d="M169.8 47.8109C169.8 47.8109 158.445 39.2399 155.631 19.5109C153.453 4.23485 167.543 14.1308 167.543 14.1308C167.543 14.1308 166.082 3.11683 174.104 4.20983C182.126 5.30283 186.622 16.8729 186.622 16.8729" fill="#0C0C0C"></path>
<path d="M215.58 5.5C215.58 5.5 255.397 9.76902 241.004 63.723L237.48 63.96L230.329 64.439" fill="#0C0C0C"></path>
<path d="M176.466 120.071C176.642 120.048 178.584 152.282 216.03 149.471C241.954 147.529 251.198 120.025 251.792 120.025C248.992 119.431 245.542 118.525 244.17 118.22C241.178 117.526 238.469 115.937 236.402 113.665C234.335 111.393 233.009 108.545 232.6 105.501C231.842 100.932 233.128 77.5581 232.732 72.9351L192.939 81.817C193.495 91.58 197.387 114.217 183.747 118.217C181.477 118.883 179.033 119.492 176.466 120.071Z" fill="#FAA896"></path>
<path opacity="1" d="M192.381 108.971C193.005 106.962 193.408 104.891 193.581 102.795C194.018 98.0116 193.931 93.1946 193.321 88.4301C201.409 87.3388 209.029 84.0002 215.314 78.7939C216.053 81.5229 220.114 93.447 218.992 96.04C216.862 100.943 206.868 108.971 192.381 108.971Z" fill="#0C0C0C"></path>
<path d="M200.594 102.591C216.294 101.183 235.083 91.264 235.354 69.954L235.598 50.726C235.869 29.416 224.898 11.9981 204.832 11.7431C184.768 11.4881 169.551 28.573 169.28 49.882L169.171 58.395C169.185 61.3185 169.398 64.2375 169.809 67.132C170.838 74.79 172.433 86.432 177.631 94.309C182.539 101.745 190.565 103.49 200.594 102.591Z" fill="#FAA896"></path>
<path opacity="1" d="M193.31 83.113C190.07 83.2593 186.841 82.6427 183.884 81.313C183.76 81.2599 183.663 81.1601 183.613 81.0353C183.563 80.9104 183.565 80.7709 183.618 80.6474C183.671 80.524 183.771 80.4267 183.896 80.3769C184.021 80.3271 184.161 80.3289 184.284 80.3819C190.656 83.0989 196.443 82.7009 201.016 79.2309C201.109 79.1595 201.205 79.0928 201.304 79.031C201.42 78.976 201.552 78.9669 201.674 79.0053C201.796 79.0438 201.899 79.127 201.962 79.2383C202.025 79.3495 202.044 79.4806 202.015 79.6052C201.986 79.7298 201.91 79.8387 201.804 79.91C201.767 79.933 201.704 79.979 201.625 80.042C199.221 81.8704 196.325 82.9398 193.31 83.113V83.113Z" fill="#0C0C0C"></path>
<path opacity="1" d="M193.462 87.9129C192.876 87.9493 192.289 87.9353 191.706 87.8709C191.572 87.8567 191.45 87.7901 191.366 87.6856C191.281 87.5812 191.242 87.4475 191.256 87.3139C191.27 87.1804 191.337 87.058 191.441 86.9736C191.546 86.8892 191.679 86.8498 191.813 86.864C195.32 87.237 196.993 85.6299 197.063 85.5639C197.159 85.4747 197.286 85.4262 197.417 85.4285C197.548 85.4309 197.673 85.4841 197.766 85.5767C197.859 85.6694 197.912 85.7945 197.915 85.9256C197.917 86.0568 197.869 86.1838 197.78 86.28C196.572 87.3066 195.047 87.8835 193.462 87.9129Z" fill="#0C0C0C"></path>
<path d="M175.906 62.4919C177.27 62.4919 178.377 61.3857 178.377 60.021C178.377 58.6563 177.27 57.55 175.906 57.55C174.541 57.55 173.435 58.6563 173.435 60.021C173.435 61.3857 174.541 62.4919 175.906 62.4919Z" fill="#0C0C0C"></path>
<path d="M200.052 60.9769C201.416 60.9769 202.523 59.8706 202.523 58.5059C202.523 57.1412 201.416 56.0349 200.052 56.0349C198.687 56.0349 197.581 57.1412 197.581 58.5059C197.581 59.8706 198.687 60.9769 200.052 60.9769Z" fill="#0C0C0C"></path>
<path d="M234.025 76.4299C240.125 76.5079 245.149 70.0468 245.225 63.9498C245.301 57.8528 240.402 54.4269 234.305 54.3499L231.111 58.3959L228.782 76.3649L234.025 76.4299Z" fill="#FAA896"></path>
<path d="M227.959 66.6319C227.959 66.6319 225.9 36.4789 216.759 34.6169C210.67 33.3759 195.903 42.0169 182.224 39.4059C176.24 38.2639 170.559 39.745 169.981 42.572C169.752 43.692 166.025 27.6079 175.396 15.4019C182.857 5.68291 207.273 2.93891 218.381 6.12591C249.139 14.9499 235.566 55.6779 235.566 55.6779L234.195 66.0729L227.959 66.6319Z" fill="#0C0C0C"></path>
<g opacity="1">
<path opacity="1" d="M189.625 75.9998H189.585C187.621 75.9798 184.327 75.7268 184.34 74.2568C184.353 73.0388 187.82 59.9258 188.215 58.4338C188.249 58.3054 188.333 58.1959 188.448 58.1292C188.563 58.0625 188.699 58.0442 188.828 58.0783C188.956 58.1124 189.066 58.1961 189.132 58.311C189.199 58.4258 189.217 58.5625 189.183 58.6908C187.643 64.4988 185.35 73.4398 185.341 74.2668C185.531 74.6168 187.561 74.9778 189.595 74.9988C189.728 74.9948 189.857 75.0437 189.953 75.1347C190.05 75.2256 190.106 75.3512 190.11 75.4838C190.114 75.6164 190.065 75.7451 189.974 75.8417C189.883 75.9383 189.758 75.9948 189.625 75.9988V75.9998Z" fill="#0C0C0C"></path>
</g>
<path d="M182.921 46.6199C180.856 46.0525 178.675 46.0525 176.61 46.6199C175.596 46.893 174.629 47.3167 173.74 47.8769C172.861 48.4255 172.054 49.0831 171.34 49.8339C171.207 49.9673 171.131 50.1472 171.127 50.3357C171.124 50.5243 171.193 50.7068 171.321 50.845C171.45 50.9832 171.627 51.0663 171.815 51.077C172.003 51.0876 172.188 51.0248 172.331 50.9019L172.375 50.863C173.035 50.2516 173.769 49.7257 174.56 49.2979C175.337 48.8716 176.174 48.5658 177.043 48.3909C178.753 48.033 180.527 48.1323 182.186 48.6789L182.256 48.7029C182.522 48.7695 182.803 48.7346 183.044 48.605C183.285 48.4755 183.469 48.2606 183.561 48.0025C183.652 47.7443 183.643 47.4615 183.537 47.2092C183.431 46.9568 183.234 46.753 182.986 46.6379L182.921 46.6199Z" fill="#0C0C0C"></path>
<path d="M197.543 47.8599C199.115 47.0967 200.86 46.7618 202.603 46.8889C203.487 46.9465 204.357 47.138 205.184 47.4569C206.025 47.7757 206.823 48.1991 207.558 48.7169L207.605 48.7479C207.763 48.851 207.954 48.8888 208.14 48.8535C208.325 48.8183 208.489 48.7125 208.598 48.5586C208.707 48.4048 208.752 48.2148 208.724 48.0283C208.696 47.8419 208.596 47.6736 208.447 47.5589C207.639 46.9105 206.753 46.3662 205.81 45.9389C204.854 45.5022 203.839 45.2114 202.797 45.076C201.754 44.9293 200.695 44.9265 199.652 45.0679C198.581 45.201 197.534 45.4858 196.543 45.9138C196.302 46.0456 196.12 46.2624 196.031 46.5218C195.942 46.7811 195.953 47.0644 196.062 47.3159C196.171 47.5675 196.37 47.7693 196.62 47.8817C196.871 47.9942 197.153 48.0092 197.414 47.9239L197.475 47.8949L197.543 47.8599Z" fill="#0C0C0C"></path>
<path d="M196.526 15.5315C197.914 8.88843 195.381 2.73872 190.868 1.79582C186.355 0.852916 181.571 5.47386 180.183 12.1169C178.795 18.7599 181.328 24.9096 185.841 25.8525C190.355 26.7954 195.138 22.1745 196.526 15.5315Z" fill="#0C0C0C"></path>
<path d="M129.942 190.91C131.121 204.767 139.484 291.218 140.618 308.286H294.283C295.165 292.892 299.13 225.579 302.478 195.476C305.678 166.75 310.154 153.676 306.473 144.751C299.98 129.007 279.315 121.976 265.321 120.081C256.776 118.925 243.921 118.095 243.921 118.095C243.921 118.095 242.833 140.11 216.885 141.335C181.562 143.001 183.921 118.095 183.746 118.095C178.024 118.095 146.875 122.257 139.086 127.333C128.086 134.503 124.834 144.275 124.706 153.252C124.56 163.588 128.6 175.194 129.942 190.91Z" fill="#F9004D"></path>
<path d="M137.733 274.22C137.624 274.22 137.519 274.178 137.438 274.104C137.358 274.03 137.307 273.929 137.298 273.82L131.476 207.234C131.471 207.177 131.478 207.119 131.495 207.064C131.513 207.009 131.541 206.958 131.578 206.914C131.615 206.87 131.66 206.834 131.712 206.807C131.763 206.781 131.819 206.765 131.876 206.76C131.934 206.754 131.992 206.76 132.047 206.777C132.102 206.794 132.154 206.822 132.198 206.859C132.242 206.897 132.279 206.943 132.305 206.994C132.331 207.046 132.346 207.102 132.35 207.16L138.172 273.746C138.177 273.803 138.171 273.861 138.153 273.916C138.136 273.971 138.108 274.022 138.071 274.066C138.034 274.11 137.988 274.147 137.937 274.173C137.885 274.199 137.83 274.215 137.772 274.22H137.733Z" fill="#0C0C0C"></path>
<path d="M148.875 312.9L169.975 295.781L166.424 296.781C165.271 297.082 164.048 296.935 163 296.368C161.952 295.802 161.158 294.858 160.779 293.729C160.603 293.139 160.55 292.52 160.622 291.909C160.693 291.298 160.889 290.708 161.197 290.175C161.504 289.642 161.917 289.177 162.41 288.809C162.903 288.441 163.466 288.177 164.064 288.034L208.39 277.253L212.204 291.372C213.389 295.757 213.237 300.396 211.768 304.695C210.298 308.993 207.579 312.755 203.957 315.497L187.532 327.891C186.691 328.551 185.648 328.901 184.579 328.881C183.51 328.861 182.48 328.472 181.665 327.78C180.942 327.139 180.444 326.285 180.241 325.341C180.038 324.397 180.142 323.413 180.538 322.532C180.467 322.511 180.403 322.471 180.353 322.417C180.309 322.363 180.279 322.3 180.265 322.232C180.251 322.164 180.254 322.094 180.274 322.028L177.248 324.32C176.313 325.058 175.133 325.414 173.946 325.316C172.759 325.217 171.653 324.671 170.853 323.789C170.165 322.975 169.787 321.945 169.784 320.88C169.781 319.815 170.153 318.782 170.836 317.965C170.789 317.957 170.743 317.941 170.701 317.918L169.457 318.86C168.616 319.521 167.573 319.87 166.503 319.85C165.434 319.83 164.405 319.44 163.59 318.748C162.713 317.971 162.171 316.884 162.078 315.716C161.984 314.548 162.347 313.389 163.09 312.483C163.073 312.457 163.058 312.43 163.046 312.401L154.259 319.53C153.379 320.244 152.252 320.579 151.126 320.461C149.999 320.344 148.965 319.784 148.251 318.904C147.537 318.024 147.202 316.897 147.32 315.77C147.437 314.644 147.997 313.61 148.877 312.896L148.875 312.9Z" fill="#FAA896"></path>
<path opacity="0.2" d="M163.581 312.653C163.627 312.636 163.671 312.611 163.709 312.58L172.163 305.556C172.25 305.484 172.304 305.38 172.314 305.268C172.325 305.155 172.29 305.044 172.218 304.957C172.145 304.87 172.042 304.816 171.93 304.805C171.817 304.795 171.706 304.83 171.619 304.902L163.165 311.925C163.088 311.989 163.037 312.078 163.019 312.176C163.002 312.275 163.019 312.376 163.069 312.463C163.118 312.549 163.197 312.616 163.29 312.651C163.384 312.685 163.487 312.686 163.581 312.653V312.653Z" fill="#0A0A0A"></path>
<path opacity="0.2" d="M171.031 317.958C171.077 317.942 171.12 317.918 171.157 317.887L177.844 312.419C177.888 312.384 177.923 312.34 177.95 312.291C177.976 312.242 177.993 312.188 177.998 312.132C178.004 312.077 177.999 312.02 177.983 311.967C177.967 311.914 177.94 311.864 177.904 311.821C177.869 311.777 177.826 311.741 177.777 311.715C177.727 311.688 177.673 311.672 177.618 311.666C177.562 311.661 177.506 311.666 177.453 311.682C177.399 311.698 177.35 311.725 177.306 311.76L170.618 317.228C170.541 317.292 170.489 317.38 170.471 317.479C170.453 317.577 170.47 317.679 170.519 317.766C170.568 317.853 170.647 317.92 170.74 317.955C170.834 317.99 170.937 317.991 171.031 317.958V317.958Z" fill="#0A0A0A"></path>
<path opacity="0.2" d="M180.82 322.541C180.869 322.523 180.914 322.497 180.953 322.464L184.053 319.807C184.098 319.771 184.134 319.727 184.161 319.677C184.188 319.626 184.204 319.571 184.21 319.515C184.215 319.458 184.209 319.401 184.192 319.347C184.174 319.293 184.146 319.242 184.109 319.199C184.072 319.156 184.027 319.121 183.976 319.095C183.925 319.07 183.869 319.055 183.813 319.052C183.756 319.048 183.699 319.056 183.645 319.075C183.592 319.094 183.542 319.123 183.5 319.162L180.4 321.818C180.324 321.882 180.274 321.971 180.258 322.069C180.241 322.167 180.259 322.268 180.309 322.354C180.359 322.44 180.438 322.506 180.531 322.54C180.624 322.574 180.726 322.574 180.82 322.541V322.541Z" fill="#0A0A0A"></path>
<path d="M335.358 270.968L335.196 270.25L307.151 146.2L251.663 158.745L273.554 255.577L185.854 277.128L196.646 326.611L313.51 304.318C313.777 304.266 314.161 304.187 314.428 304.127C317.98 303.324 321.339 301.83 324.313 299.729C327.287 297.629 329.818 294.962 331.762 291.883C333.705 288.804 335.024 285.372 335.641 281.783C336.258 278.195 336.161 274.52 335.358 270.968V270.968Z" fill="#F9004D"></path>
<path d="M185.429 277.214C185.406 277.103 185.427 276.987 185.487 276.891C185.547 276.795 185.643 276.726 185.753 276.699L273.053 255.258L258.858 192.558C258.832 192.445 258.853 192.326 258.915 192.228C258.977 192.13 259.075 192.06 259.188 192.035C259.301 192.009 259.42 192.029 259.518 192.091C259.616 192.153 259.685 192.251 259.711 192.364L274.001 255.48C274.027 255.592 274.007 255.709 273.947 255.807C273.887 255.905 273.791 255.975 273.679 256.002L186.369 277.443C186.369 277.443 186.954 279.995 187.119 280.852C187.131 280.963 187.097 281.074 187.028 281.162C186.958 281.249 186.856 281.305 186.745 281.318C186.634 281.331 186.523 281.3 186.434 281.232C186.346 281.163 186.288 281.063 186.273 280.952C186.075 280.017 185.429 277.214 185.429 277.214Z" fill="#0C0C0C"></path>
<path d="M188.851 346.311L155.134 242.666C154.541 240.845 153.388 239.258 151.838 238.132C150.288 237.007 148.422 236.401 146.507 236.401H9.14115C7.70928 236.401 6.29776 236.74 5.02201 237.39C3.74626 238.04 2.64227 238.983 1.80082 240.142C0.959368 241.3 0.404372 242.641 0.180702 244.056C-0.0429676 245.47 0.0713145 246.917 0.514198 248.279L34.231 351.924C34.8235 353.745 35.9772 355.332 37.5269 356.458C39.0766 357.583 40.9427 358.19 42.8579 358.19H180.224C181.656 358.19 183.068 357.851 184.343 357.2C185.619 356.55 186.723 355.607 187.564 354.448C188.405 353.29 188.961 351.949 189.185 350.534C189.408 349.12 189.294 347.673 188.851 346.311Z" fill="#292A2E"></path>
<path opacity="0.2" d="M188.851 346.311L155.134 242.666C154.541 240.845 153.388 239.258 151.838 238.132C150.288 237.007 148.422 236.401 146.507 236.401H9.14115C7.70928 236.401 6.29776 236.74 5.02201 237.39C3.74626 238.04 2.64227 238.983 1.80082 240.142C0.959368 241.3 0.404372 242.641 0.180702 244.056C-0.0429676 245.47 0.0713145 246.917 0.514198 248.279L34.231 351.924C34.8235 353.745 35.9772 355.332 37.5269 356.458C39.0766 357.583 40.9427 358.19 42.8579 358.19H180.224C181.656 358.19 183.068 357.851 184.343 357.2C185.619 356.55 186.723 355.607 187.564 354.448C188.405 353.29 188.961 351.949 189.185 350.534C189.408 349.12 189.294 347.673 188.851 346.311Z" fill="white"></path>
<path d="M90.7251 311.702C98.6819 311.702 105.132 305.252 105.132 297.295C105.132 289.338 98.6819 282.888 90.7251 282.888C82.7683 282.888 76.3179 289.338 76.3179 297.295C76.3179 305.252 82.7683 311.702 90.7251 311.702Z" fill="white"></path>
</svg>